<svg xmlns="http://www.w3.org/2000/svg" width="1760" height="1150" viewBox="0 0 1760 1150" font-family="Helvetica,Arial,sans-serif">
<defs><marker id="arr" markerWidth="9" markerHeight="7" refX="8" refY="3.5" orient="auto"><polygon points="0 0, 9 3.5, 0 7" fill="#78909c"/></marker></defs>
<rect width="1760" height="1150" fill="white"/>
<text x="25" y="40" font-size="21" font-weight="bold" fill="#263238">FRIDA vision area — full architecture</text>
<text x="25" y="60" font-size="12" fill="#607d8b">camera → nodes (+models) → services/actions → subtask manager → task FSMs · audited 2026-07-02</text>
<path d="M 210 138.0 C 236.0 138.0, 236.0 131.0, 262 131.0" fill="none" stroke="#78909c" stroke-width="1.4" marker-end="url(#arr)"/>
<text x="236.0" y="130.5" font-size="9.5" fill="#78909c" text-anchor="middle">raw</text>
<path d="M 210 227.0 C 236.0 227.0, 236.0 149.0, 262 149.0" fill="none" stroke="#78909c" stroke-width="1.4" stroke-dasharray="6,4" marker-end="url(#arr)"/>
<text x="236.0" y="184.0" font-size="9.5" fill="#78909c" text-anchor="middle">dev</text>
<path d="M 467 117.0 C 493.5 117.0, 493.5 144.0, 520 144.0" fill="none" stroke="#78909c" stroke-width="1.4" marker-end="url(#arr)"/>
<text x="493" y="112" font-size="9.5" fill="#78909c" text-anchor="middle">oriented</text>
<path d="M 467 139.0 C 493.5 139.0, 493.5 254.0, 520 254.0" fill="none" stroke="#78909c" stroke-width="1.4" marker-end="url(#arr)"/>
<text x="493" y="176" font-size="9.5" fill="#78909c" text-anchor="middle">oriented</text>
<path d="M 117.5 184 C 318.75 184, 318.75 364.0, 520 364.0" fill="none" stroke="#78909c" stroke-width="1.4" stroke-dasharray="6,4" marker-end="url(#arr)"/>
<text x="318.75" y="372" font-size="9.5" fill="#78909c" text-anchor="middle">raw + rotation (flips internally)</text>
<path d="M 117.5 184 C 533.75 184, 533.75 465.0, 950 465.0" fill="none" stroke="#c62828" stroke-width="1.4" stroke-dasharray="6,4" marker-end="url(#arr)"/>
<text x="908" y="415" font-size="9.5" fill="#c62828" text-anchor="middle">raw!</text>
<path d="M 364.5 202 C 364.5 202, 364.5 170, 364.5 170" fill="none" stroke="#78909c" stroke-width="1.4" marker-end="url(#arr)"/>
<path d="M 870 236.0 C 910.0 236.0, 910.0 130.0, 950 130.0" fill="none" stroke="#2e7d32" stroke-width="1.4" stroke-dasharray="6,4" marker-end="url(#arr)"/>
<text x="908" y="205" font-size="9.5" fill="#2e7d32" text-anchor="middle">YoloDetect</text>
<path d="M 870 454.0 C 910.0 454.0, 910.0 152.0, 950 152.0" fill="none" stroke="#2e7d32" stroke-width="1.4" stroke-dasharray="6,4" marker-end="url(#arr)"/>
<text x="908" y="330" font-size="9.5" fill="#2e7d32" text-anchor="middle">YoloDetect</text>
<path d="M 870 480.0 C 910.0 480.0, 910.0 435.0, 950 435.0" fill="none" stroke="#6a1b9a" stroke-width="1.4" stroke-dasharray="6,4" marker-end="url(#arr)"/>
<text x="908" y="440" font-size="9.5" fill="#6a1b9a" text-anchor="middle">CropQuery</text>
<path d="M 870 378.0 C 910.0 378.0, 910.0 423.0, 950 423.0" fill="none" stroke="#6a1b9a" stroke-width="1.4" stroke-dasharray="6,4" marker-end="url(#arr)"/>
<text x="908" y="462" font-size="9.5" fill="#6a1b9a" text-anchor="middle">CropQuery</text>
<path d="M 870 563.0 C 910.0 563.0, 910.0 449.0, 950 449.0" fill="none" stroke="#6a1b9a" stroke-width="1.4" stroke-dasharray="6,4" marker-end="url(#arr)"/>
<text x="908" y="484" font-size="9.5" fill="#6a1b9a" text-anchor="middle">CropQuery</text>
<path d="M 870 637.0 C 910.0 637.0, 910.0 467.0, 950 467.0" fill="none" stroke="#6a1b9a" stroke-width="1.4" stroke-dasharray="6,4" marker-end="url(#arr)"/>
<text x="908" y="506" font-size="9.5" fill="#6a1b9a" text-anchor="middle">ObjectPoints</text>
<path d="M 870 799.0 C 910.0 799.0, 910.0 481.0, 950 481.0" fill="none" stroke="#6a1b9a" stroke-width="1.4" stroke-dasharray="6,4" marker-end="url(#arr)"/>
<text x="908" y="528" font-size="9.5" fill="#6a1b9a" text-anchor="middle">ObjectPoints</text>
<path d="M 520 637.0 C 520.0 637.0, 520.0 563.0, 520 563.0" fill="none" stroke="#1565c0" stroke-width="1.4" stroke-dasharray="6,4" marker-end="url(#arr)"/>
<text x="468" y="590" font-size="9.5" fill="#1565c0" text-anchor="middle">GET_CUSTOMER</text>
<path d="M 1120.0 274 C 1120.0 274, 1120.0 286, 1120.0 286" fill="none" stroke="#2e7d32" stroke-width="1.4" stroke-dasharray="6,4" marker-end="url(#arr)"/>
<text x="1120.0" y="276.0" font-size="9.5" fill="#2e7d32" text-anchor="middle">detections</text>
<path d="M 1120.0 518 C 1120.0 518, 1120.0 530, 1120.0 530" fill="none" stroke="#6a1b9a" stroke-width="1.4" marker-end="url(#arr)"/>
<text x="1120.0" y="520.0" font-size="9.5" fill="#6a1b9a" text-anchor="middle">gRPC</text>
<path d="M 870 278.0 C 910.0 278.0, 910.0 666.0, 950 666.0" fill="none" stroke="#757575" stroke-width="1.4" stroke-dasharray="6,4" marker-end="url(#arr)"/>
<text x="908" y="630" font-size="9.5" fill="#757575" text-anchor="middle">MapAreas</text>
<path d="M 870 498.0 C 910.0 498.0, 910.0 682.0, 950 682.0" fill="none" stroke="#757575" stroke-width="1.4" stroke-dasharray="6,4" marker-end="url(#arr)"/>
<text x="908" y="650" font-size="9.5" fill="#757575" text-anchor="middle">MapAreas</text>
<path d="M 870 718.0 C 910.0 718.0, 910.0 732.0, 950 732.0" fill="none" stroke="#757575" stroke-width="1.4" stroke-dasharray="6,4" marker-end="url(#arr)"/>
<text x="908" y="705" font-size="9.5" fill="#757575" text-anchor="middle">PointTransform</text>
<path d="M 870 396.0 C 910.0 396.0, 910.0 790.0, 950 790.0" fill="none" stroke="#757575" stroke-width="1.4" marker-end="url(#arr)"/>
<text x="908" y="745" font-size="9.5" fill="#757575" text-anchor="middle">RESULTS 3D pt</text>
<path d="M 870 180.0 C 910.0 180.0, 910.0 850.0, 950 850.0" fill="none" stroke="#757575" stroke-width="1.4" marker-end="url(#arr)"/>
<text x="908" y="790" font-size="9.5" fill="#757575" text-anchor="middle">FOLLOW pt</text>
<path d="M 870 124.0 C 1135.0 124.0, 1135.0 121.0, 1400 121.0" fill="none" stroke="#e65100" stroke-width="1.4" marker-end="url(#arr)"/>
<path d="M 870 254.0 C 1135.0 254.0, 1135.0 145.0, 1400 145.0" fill="none" stroke="#e65100" stroke-width="1.4" marker-end="url(#arr)"/>
<path d="M 870 340.0 C 1135.0 340.0, 1135.0 171.0, 1400 171.0" fill="none" stroke="#e65100" stroke-width="1.4" marker-end="url(#arr)"/>
<path d="M 870 466.0 C 1135.0 466.0, 1135.0 281.0, 1400 281.0" fill="none" stroke="#e65100" stroke-width="1.4" marker-end="url(#arr)"/>
<path d="M 1290 158.0 C 1345.0 158.0, 1345.0 251.0, 1400 251.0" fill="none" stroke="#e65100" stroke-width="1.4" marker-end="url(#arr)"/>
<path d="M 870 637.0 C 1135.0 637.0, 1135.0 380.0, 1400 380.0" fill="none" stroke="#e65100" stroke-width="1.4" marker-end="url(#arr)"/>
<path d="M 870 571.0 C 1135.0 571.0, 1135.0 400.0, 1400 400.0" fill="none" stroke="#e65100" stroke-width="1.4" marker-end="url(#arr)"/>
<path d="M 1290 445.0 C 1345.0 445.0, 1345.0 485.0, 1400 485.0" fill="none" stroke="#e65100" stroke-width="1.4" marker-end="url(#arr)"/>
<path d="M 1290 325.0 C 1345.0 325.0, 1345.0 580.0, 1400 580.0" fill="none" stroke="#e65100" stroke-width="1.4" marker-end="url(#arr)"/>
<path d="M 1740 151.0 C 1740.0 151.0, 1740.0 664.0, 1740 664.0" fill="none" stroke="#757575" stroke-width="1.4" marker-end="url(#arr)"/>
<text x="25" y="82" font-size="14" font-weight="bold" fill="#546e7a">Sensors</text>
<rect x="25" y="92" width="185" height="92" rx="7" fill="#eceff1" stroke="#546e7a" stroke-width="1.6"/>
<text x="34" y="109" font-size="12.5" font-weight="bold" fill="#546e7a">home2-zed (container)</text>
<text x="34" y="122.5" font-size="10.5" fill="#37474f">CAMERA_TOPIC (raw RGB)</text>
<text x="34" y="136.0" font-size="10.5" fill="#37474f">DEPTH_IMAGE_TOPIC</text>
<text x="34" y="149.5" font-size="10.5" fill="#37474f">CAMERA_INFO_TOPIC</text>
<rect x="25" y="202" width="185" height="50" rx="7" fill="#eceff1" stroke="#546e7a" stroke-width="1.6" stroke-dasharray="5,3"/>
<text x="34" y="219" font-size="12.5" font-weight="bold" fill="#546e7a">zed_simulator.py</text>
<text x="34" y="232.5" font-size="10.5" fill="#37474f">dev-only webcam feed</text>
<text x="262" y="82" font-size="14" font-weight="bold" fill="#00695c">Preprocess</text>
<rect x="262" y="92" width="205" height="78" rx="7" fill="#e0f2f1" stroke="#00695c" stroke-width="1.6"/>
<text x="271" y="109" font-size="12.5" font-weight="bold" fill="#00695c">image_orienter</text>
<text x="271" y="122.5" font-size="10.5" fill="#37474f">no model</text>
<text x="271" y="136.0" font-size="10.5" fill="#37474f">rotates frame 0/90/180/270</text>
<text x="271" y="149.5" font-size="10.5" fill="#37474f">pub IMAGE_ORIENTED_TOPIC</text>
<rect x="262" y="202" width="205" height="64" rx="7" fill="#e0f2f1" stroke="#00695c" stroke-width="1.6" stroke-dasharray="5,3"/>
<text x="271" y="219" font-size="12.5" font-weight="bold" fill="#00695c">CAMERA_ROTATION_TOPIC</text>
<text x="271" y="232.5" font-size="10.5" fill="#37474f">Int16 0/180, published by</text>
<text x="271" y="246.0" font-size="10.5" fill="#37474f">vision_tasks.camera_upside_down()</text>
<text x="520" y="82" font-size="14" font-weight="bold" fill="#1565c0">vision_general</text>
<rect x="520" y="92" width="350" height="104" rx="7" fill="#e3f2fd" stroke="#1565c0" stroke-width="1.6"/>
<text x="529" y="109" font-size="12.5" font-weight="bold" fill="#1565c0">face_recognition_node</text>
<text x="529" y="122.5" font-size="10.5" fill="#37474f">model: InsightFace buffalo_sc (TRT)</text>
<text x="529" y="136.0" font-size="10.5" fill="#37474f">srv SAVE_NAME | srv FOLLOW_BY</text>
<text x="529" y="149.5" font-size="10.5" fill="#37474f">pub FOLLOW_TOPIC (Point) / PERSON_LIST</text>
<text x="529" y="163.0" font-size="10.5" fill="#37474f">pub PERSON_NAME / FACE_RECOGNITION_IMAGE</text>
<text x="529" y="176.5" font-size="10.5" fill="#37474f">sub /vision/face_recognition/active (hardcoded)</text>
<rect x="520" y="208" width="350" height="92" rx="7" fill="#e3f2fd" stroke="#1565c0" stroke-width="1.6"/>
<text x="529" y="225" font-size="12.5" font-weight="bold" fill="#1565c0">hric_commands</text>
<text x="529" y="238.5" font-size="10.5" fill="#37474f">model: yolo11m-pose (TRT, wrists)</text>
<text x="529" y="252.0" font-size="10.5" fill="#37474f">srv FIND_SEAT | srv DETECT_HAND</text>
<text x="529" y="265.5" font-size="10.5" fill="#37474f">action DetectPerson @ CHECK_PERSON</text>
<text x="529" y="279.0" font-size="10.5" fill="#c62828" font-weight="bold">single-threaded spin + blocking waits</text>
<rect x="520" y="312" width="350" height="104" rx="7" fill="#e3f2fd" stroke="#1565c0" stroke-width="1.6"/>
<text x="529" y="329" font-size="12.5" font-weight="bold" fill="#1565c0">tracker_node</text>
<text x="529" y="342.5" font-size="10.5" fill="#37474f">models: yolov8n+ByteTrack (TRT),</text>
<text x="529" y="356.0" font-size="10.5" fill="#37474f">  yolo11m-pose, SWIN ReID (lazy)</text>
<text x="529" y="369.5" font-size="10.5" fill="#37474f">srv SET_TARGET / SET_TARGET_BY / IS_TRACKING</text>
<text x="529" y="383.0" font-size="10.5" fill="#37474f">pub RESULTS_TOPIC (3D point) / CENTROID</text>
<rect x="520" y="428" width="350" height="92" rx="7" fill="#e3f2fd" stroke="#1565c0" stroke-width="1.6"/>
<text x="529" y="445" font-size="12.5" font-weight="bold" fill="#1565c0">gpsr_commands</text>
<text x="529" y="458.5" font-size="10.5" fill="#37474f">model: yolo11m-pose (PoseDetection)</text>
<text x="529" y="472.0" font-size="10.5" fill="#37474f">srv COUNT_BY POSE/GESTURE/PERSON/COLOR</text>
<text x="529" y="485.5" font-size="10.5" fill="#37474f">srv POSE_GESTURE (find_person_info)</text>
<rect x="520" y="532" width="350" height="62" rx="7" fill="#e3f2fd" stroke="#1565c0" stroke-width="1.6"/>
<text x="529" y="549" font-size="12.5" font-weight="bold" fill="#1565c0">customer_node</text>
<text x="529" y="562.5" font-size="10.5" fill="#37474f">model: yolo11m-pose</text>
<text x="529" y="576.0" font-size="10.5" fill="#37474f">srv GET_CUSTOMER (waving/calling)</text>
<rect x="520" y="606" width="350" height="62" rx="7" fill="#e3f2fd" stroke="#1565c0" stroke-width="1.6"/>
<text x="529" y="623" font-size="12.5" font-weight="bold" fill="#1565c0">restaurant_commands</text>
<text x="529" y="636.5" font-size="10.5" fill="#37474f">no model</text>
<text x="529" y="650.0" font-size="10.5" fill="#37474f">srv CUSTOMER_TABLES</text>
<rect x="520" y="680" width="350" height="76" rx="7" fill="#e3f2fd" stroke="#1565c0" stroke-width="1.6"/>
<text x="529" y="697" font-size="12.5" font-weight="bold" fill="#1565c0">person_in_map</text>
<text x="529" y="710.5" font-size="10.5" fill="#37474f">no model | srv PERSON_INSIDE</text>
<text x="529" y="724.0" font-size="10.5" fill="#c62828" font-weight="bold">single-threaded spin + blocking wait</text>
<text x="529" y="737.5" font-size="10.5" fill="#c62828" font-weight="bold">infinite wait_for_service in __init__</text>
<rect x="520" y="768" width="350" height="62" rx="7" fill="#e3f2fd" stroke="#1565c0" stroke-width="1.6"/>
<text x="529" y="785" font-size="12.5" font-weight="bold" fill="#1565c0">trash_detection_node</text>
<text x="529" y="798.5" font-size="10.5" fill="#37474f">no model | srv TRASHCAN</text>
<text x="529" y="812.0" font-size="10.5" fill="#c62828" font-weight="bold">returns []/None instead of response</text>
<rect x="520" y="842" width="350" height="62" rx="7" fill="#e3f2fd" stroke="#1565c0" stroke-width="1.6"/>
<text x="529" y="859" font-size="12.5" font-weight="bold" fill="#1565c0">dishwasher_node</text>
<text x="529" y="872.5" font-size="10.5" fill="#37474f">models: 3x custom YOLO (.pt)</text>
<text x="529" y="886.0" font-size="10.5" fill="#37474f">srv DISHWASHER layout/rack/tablet</text>
<rect x="520" y="916" width="350" height="62" rx="7" fill="#ffebee" stroke="#c62828" stroke-width="1.6"/>
<text x="529" y="933" font-size="12.5" font-weight="bold" fill="#c62828">is_person_inside.py — BROKEN</text>
<text x="529" y="946.5" font-size="10.5" fill="#c62828" font-weight="bold">mediapipe-era API on ultralytics results</text>
<text x="529" y="960.0" font-size="10.5" fill="#c62828" font-weight="bold">steals node name 'tracker_node'</text>
<text x="950" y="82" font-size="14" font-weight="bold" fill="#2e7d32">object_detector_2d</text>
<rect x="950" y="92" width="340" height="92" rx="7" fill="#e8f5e9" stroke="#2e7d32" stroke-width="1.6"/>
<text x="959" y="109" font-size="12.5" font-weight="bold" fill="#2e7d32">object_detector_node (ObjectDetect2D)</text>
<text x="959" y="122.5" font-size="10.5" fill="#37474f">model: yolo26n (yolo_generic, TRT)</text>
<text x="959" y="136.0" font-size="10.5" fill="#37474f">srv YoloDetect | srv DetectionHandler</text>
<text x="959" y="149.5" font-size="10.5" fill="#37474f">pub DETECTIONS_TOPIC</text>
<rect x="950" y="196" width="340" height="78" rx="7" fill="#e8f5e9" stroke="#2e7d32" stroke-width="1.6"/>
<text x="959" y="213" font-size="12.5" font-weight="bold" fill="#2e7d32">zero_shot_object_detector_node</text>
<text x="959" y="226.5" font-size="10.5" fill="#37474f">model: YOLOE yoloe-11l-seg (open-vocab)</text>
<text x="959" y="240.0" font-size="10.5" fill="#37474f">pub ZERO_SHOT_DETECTIONS | srv SET_CLASSES</text>
<rect x="950" y="286" width="340" height="78" rx="7" fill="#e8f5e9" stroke="#2e7d32" stroke-width="1.6"/>
<text x="959" y="303" font-size="12.5" font-weight="bold" fill="#2e7d32">pointing_detection</text>
<text x="959" y="316.5" font-size="10.5" fill="#37474f">model: yolo11m-pose</text>
<text x="959" y="330.0" font-size="10.5" fill="#37474f">srv DetectPointingObject</text>
<text x="959" y="343.5" font-size="10.5" fill="#37474f">sub ZERO_SHOT_DETECTIONS</text>
<text x="950" y="402" font-size="14" font-weight="bold" fill="#6a1b9a">moondream_run</text>
<rect x="950" y="412" width="340" height="106" rx="7" fill="#f3e5f5" stroke="#6a1b9a" stroke-width="1.6"/>
<text x="959" y="429" font-size="12.5" font-weight="bold" fill="#6a1b9a">moondream_node</text>
<text x="959" y="442.5" font-size="10.5" fill="#37474f">model: yolov8n (person crop)</text>
<text x="959" y="456.0" font-size="10.5" fill="#37474f">srv QUERY / CROP_QUERY / BEVERAGE /</text>
<text x="959" y="469.5" font-size="10.5" fill="#37474f">  OBJECT_POINTS / PERSON_POSTURE(!broken attr)</text>
<text x="959" y="483.0" font-size="10.5" fill="#c62828" font-weight="bold">subscribes RAW camera (no rotation handling)</text>
<rect x="950" y="530" width="340" height="64" rx="7" fill="#f3e5f5" stroke="#6a1b9a" stroke-width="1.6"/>
<text x="959" y="547" font-size="12.5" font-weight="bold" fill="#6a1b9a">home2-moondream-server (container)</text>
<text x="959" y="560.5" font-size="10.5" fill="#37474f">model: Moondream2 2B VLM</text>
<text x="959" y="574.0" font-size="10.5" fill="#37474f">gRPC :50052</text>
<text x="950" y="640" font-size="14" font-weight="bold" fill="#757575">external (other areas)</text>
<rect x="950" y="650" width="340" height="48" rx="7" fill="#f5f5f5" stroke="#757575" stroke-width="1.6"/>
<text x="959" y="667" font-size="12.5" font-weight="bold" fill="#757575">nav_central (navigation)</text>
<text x="959" y="680.5" font-size="10.5" fill="#37474f">srv MapAreas (house polygons)</text>
<rect x="950" y="710" width="340" height="44" rx="7" fill="#f5f5f5" stroke="#757575" stroke-width="1.6"/>
<text x="959" y="727" font-size="12.5" font-weight="bold" fill="#757575">point_transformer (navigation)</text>
<text x="959" y="740.5" font-size="10.5" fill="#37474f">srv PointTransformation</text>
<rect x="950" y="766" width="340" height="48" rx="7" fill="#f5f5f5" stroke="#757575" stroke-width="1.6"/>
<text x="959" y="783" font-size="12.5" font-weight="bold" fill="#757575">person_goal_smoother -&gt; Nav2</text>
<text x="959" y="796.5" font-size="10.5" fill="#37474f">consumes tracker RESULTS_TOPIC</text>
<rect x="950" y="826" width="340" height="48" rx="7" fill="#f5f5f5" stroke="#757575" stroke-width="1.6"/>
<text x="959" y="843" font-size="12.5" font-weight="bold" fill="#757575">manipulation follow_face</text>
<text x="959" y="856.5" font-size="10.5" fill="#37474f">consumes FOLLOW_TOPIC (Point)</text>
<text x="1400" y="82" font-size="14" font-weight="bold" fill="#e65100">vision_tasks.py (subtask manager)</text>
<rect x="1400" y="92" width="340" height="118" rx="7" fill="#fff3e0" stroke="#e65100" stroke-width="1.6"/>
<text x="1409" y="109" font-size="12.5" font-weight="bold" fill="#e65100">Task.HRIC</text>
<text x="1409" y="122.5" font-size="10.5" fill="#37474f">detect_person (hric_commands)</text>
<text x="1409" y="136.0" font-size="10.5" fill="#37474f">find_seat / detect_hand (hric_commands)</text>
<text x="1409" y="149.5" font-size="10.5" fill="#37474f">save_face_name / follow_by_name / isPerson (face_rec)</text>
<text x="1409" y="163.0" font-size="10.5" fill="#37474f">describe_person -&gt; moondream_query (moondream)</text>
<text x="1409" y="176.5" font-size="10.5" fill="#37474f">track_person (tracker)  !not in HRIC service dict</text>
<text x="1409" y="190.0" font-size="10.5" fill="#37474f">camera_upside_down / activate|deactivate_face_rec</text>
<rect x="1400" y="222" width="340" height="118" rx="7" fill="#fff3e0" stroke="#e65100" stroke-width="1.6"/>
<text x="1409" y="239" font-size="12.5" font-weight="bold" fill="#e65100">Task.GPSR</text>
<text x="1409" y="252.5" font-size="10.5" fill="#37474f">count_by_pose/gesture/person/color (gpsr_cmds)</text>
<text x="1409" y="266.0" font-size="10.5" fill="#37474f">find_person_info (gpsr_cmds)</text>
<text x="1409" y="279.5" font-size="10.5" fill="#37474f">detect_objects (object_detector)</text>
<text x="1409" y="293.0" font-size="10.5" fill="#37474f">track_person_by (tracker)</text>
<text x="1409" y="306.5" font-size="10.5" fill="#37474f">detect_person / save_face_name</text>
<text x="1409" y="320.0" font-size="10.5" fill="#c62828" font-weight="bold">read_qr — NO SERVER exists (always times out)</text>
<rect x="1400" y="352" width="340" height="76" rx="7" fill="#fff3e0" stroke="#e65100" stroke-width="1.6"/>
<text x="1409" y="369" font-size="12.5" font-weight="bold" fill="#e65100">Task.RESTAURANT</text>
<text x="1409" y="382.5" font-size="10.5" fill="#37474f">customer_tables (restaurant_cmds)</text>
<text x="1409" y="396.0" font-size="10.5" fill="#37474f">get_customer (customer_node)</text>
<text x="1409" y="409.5" font-size="10.5" fill="#37474f">detect_objects (object_detector)</text>
<rect x="1400" y="440" width="340" height="90" rx="7" fill="#fff3e0" stroke="#e65100" stroke-width="1.6"/>
<text x="1409" y="457" font-size="12.5" font-weight="bold" fill="#e65100">Task.PICK_AND_PLACE / STORING / LAUNDRY</text>
<text x="1409" y="470.5" font-size="10.5" fill="#37474f">detect_objects (object_detector)</text>
<text x="1409" y="484.0" font-size="10.5" fill="#37474f">moondream_query / moondream_crop_query</text>
<text x="1409" y="497.5" font-size="10.5" fill="#c62828" font-weight="bold">detect_shelf — NO SERVER exists</text>
<rect x="1400" y="542" width="340" height="76" rx="7" fill="#fff3e0" stroke="#e65100" stroke-width="1.6"/>
<text x="1409" y="559" font-size="12.5" font-weight="bold" fill="#e65100">Task.HELP_ME_CARRY</text>
<text x="1409" y="572.5" font-size="10.5" fill="#37474f">track_person (tracker)</text>
<text x="1409" y="586.0" font-size="10.5" fill="#37474f">get_pointing_bag (pointing_detection)</text>
<text x="1409" y="599.5" font-size="10.5" fill="#37474f">moondream_crop_query (moondream)</text>
<rect x="1400" y="642" width="340" height="64" rx="7" fill="#f5f5f5" stroke="#757575" stroke-width="1.6"/>
<text x="1409" y="659" font-size="12.5" font-weight="bold" fill="#757575">*_task_manager.py FSMs</text>
<text x="1409" y="672.5" font-size="10.5" fill="#37474f">home2-integration container</text>
<text x="1409" y="686.0" font-size="10.5" fill="#37474f">hric / gpsr / restaurant / pickplace / laundry</text>
<text x="25" y="300" font-size="13" font-weight="bold" fill="#37474f">Legend</text>
<rect x="25" y="314" width="16" height="14" rx="3" fill="#e3f2fd" stroke="#1565c0"/>
<text x="47" y="325" font-size="11" fill="#37474f">vision_general pkg</text>
<rect x="25" y="336" width="16" height="14" rx="3" fill="#e8f5e9" stroke="#2e7d32"/>
<text x="47" y="347" font-size="11" fill="#37474f">object_detector_2d pkg</text>
<rect x="25" y="358" width="16" height="14" rx="3" fill="#f3e5f5" stroke="#6a1b9a"/>
<text x="47" y="369" font-size="11" fill="#37474f">moondream_run pkg</text>
<rect x="25" y="380" width="16" height="14" rx="3" fill="#fff3e0" stroke="#e65100"/>
<text x="47" y="391" font-size="11" fill="#37474f">subtask manager (integration)</text>
<rect x="25" y="402" width="16" height="14" rx="3" fill="#f5f5f5" stroke="#757575"/>
<text x="47" y="413" font-size="11" fill="#37474f">other areas (nav/manip)</text>
<rect x="25" y="424" width="16" height="14" rx="3" fill="#ffebee" stroke="#c62828"/>
<text x="47" y="435" font-size="11" fill="#37474f">broken node</text>
<line x1="25" y1="454" x2="55" y2="454" stroke="#78909c" stroke-width="1.4" marker-end="url(#arr)"/>
<text x="61" y="458" font-size="11" fill="#37474f">topic / data flow</text>
<line x1="25" y1="474" x2="55" y2="474" stroke="#78909c" stroke-width="1.4" stroke-dasharray="6,4" marker-end="url(#arr)"/>
<text x="61" y="478" font-size="11" fill="#37474f">service dependency</text>
<text x="25" y="498" font-size="11" font-weight="bold" fill="#c62828">red = known issue</text>
<rect x="25" y="470" width="205" height="118" rx="7" fill="#f5f5f5" stroke="#757575" stroke-width="1.6" stroke-dasharray="5,3"/>
<text x="34" y="487" font-size="12.5" font-weight="bold" fill="#757575">Model duplication (VRAM)</text>
<text x="34" y="500.5" font-size="10.5" fill="#37474f">yolo11m-pose loaded 5x:</text>
<text x="34" y="514.0" font-size="10.5" fill="#37474f">  hric_cmds, tracker, gpsr,</text>
<text x="34" y="527.5" font-size="10.5" fill="#37474f">  customer, pointing</text>
<text x="34" y="541.0" font-size="10.5" fill="#37474f">yolov8n loaded 2x:</text>
<text x="34" y="554.5" font-size="10.5" fill="#37474f">  tracker, moondream_node</text>
</svg>